<svg xmlns="http://www.w3.org/2000/svg" viewBox="0 0 800 600">
  <!-- Gray background representing subway interior -->
  <rect width="800" height="600" fill="#e0e0e0" />

  <!-- Subway car interior lines -->
  <rect x="50" y="50" width="700" height="500" fill="#f5f5f5" stroke="#ccc" stroke-width="2" />
  <line x1="50" y1="150" x2="750" y2="150" stroke="#ccc" stroke-width="1" />
  <line x1="400" y1="50" x2="400" y2="550" stroke="#ccc" stroke-width="1" />

  <!-- Subway seats -->
  <rect x="80" y="180" width="50" height="40" fill="#b0b0b0" />
  <rect x="150" y="180" width="50" height="40" fill="#b0b0b0" />
  <rect x="220" y="180" width="50" height="40" fill="#b0b0b0" />
  <rect x="450" y="180" width="50" height="40" fill="#b0b0b0" />
  <rect x="520" y="180" width="50" height="40" fill="#b0b0b0" />
  <rect x="590" y="180" width="50" height="40" fill="#b0b0b0" />

  <rect x="80" y="400" width="50" height="40" fill="#b0b0b0" />
  <rect x="150" y="400" width="50" height="40" fill="#b0b0b0" />
  <rect x="220" y="400" width="50" height="40" fill="#b0b0b0" />
  <rect x="450" y="400" width="50" height="40" fill="#b0b0b0" />
  <rect x="520" y="400" width="50" height="40" fill="#b0b0b0" />
  <rect x="590" y="400" width="50" height="40" fill="#b0b0b0" />

  <!-- Simplified people -->
  <circle cx="100" cy="300" r="30" fill="#888" />
  <circle cx="200" cy="250" r="30" fill="#888" />
  <circle cx="300" cy="350" r="30" fill="#888" />
  <circle cx="500" cy="280" r="30" fill="#888" />
  <circle cx="600" cy="320" r="30" fill="#888" />
  <circle cx="700" cy="270" r="30" fill="#888" />

  <!-- Face detection boxes -->
  <rect x="85" y="285" width="30" height="30" stroke="#4CAF50" stroke-width="2" fill="none" />
  <rect x="185" y="235" width="30" height="30" stroke="#4CAF50" stroke-width="2" fill="none" />
  <rect x="285" y="335" width="30" height="30" stroke="#4CAF50" stroke-width="2" fill="none" />
  <rect x="485" y="265" width="30" height="30" stroke="#4CAF50" stroke-width="2" fill="none" />
  <rect x="585" y="305" width="30" height="30" stroke="#4CAF50" stroke-width="2" fill="none" />
  <rect x="685" y="255" width="30" height="30" stroke="#4CAF50" stroke-width="2" fill="none" />
</svg>
